<?xml version="1.0" encoding="UTF-8"?>
<svg version="1.1" xmlns="http://www.w3.org/2000/svg" width="200" height="200">
<path d="M0 0 C43.29672845 0 43.29672845 0 64.75 20.1875 C65.83365845 21.20638306 65.83365845 21.20638306 66.93920898 22.24584961 C71.40804935 26.46085299 75.7828039 30.75217459 80.09765625 35.125 C82.0102614 37.0101139 83.97745108 38.79621946 86 40.5625 C86.60408691 41.09625244 87.20817383 41.63000488 87.83056641 42.17993164 C89.97398502 44.03661621 89.97398502 44.03661621 92.33959961 45.61108398 C96.08621838 48.38725571 98.63063176 50.43309974 99.72705078 55.08422852 C99.88461936 58.59608256 99.78799762 61.9922592 99.5625 65.5 C99.5015918 67.30597656 99.5015918 67.30597656 99.43945312 69.1484375 C99.33392646 72.10318406 99.18648189 75.04944217 99 78 C95.87662477 76.5157197 93.82337153 75.01930954 91.4375 72.5 C89.32475777 70.27903267 87.58386374 68.72257583 85 67 C85 66.34 85 65.68 85 65 C84.42765625 64.75636719 83.8553125 64.51273437 83.265625 64.26171875 C80.59566462 62.77482702 78.86170993 61.01916092 76.75 58.8125 C73.90085987 55.89341371 71.03629154 53.09011446 67.9375 50.4375 C64.42503824 47.42681849 61.18953111 44.20917082 57.9453125 40.9140625 C55.59048111 38.59705973 53.10614329 36.47923186 50.578125 34.35546875 C47.60799072 31.80438807 44.81042014 29.09302819 42.4765625 25.9453125 C40.42402544 23.26929118 40.42402544 23.26929118 36 20 C30.72 19.67 25.44 19.34 20 19 C20 50.68 20 82.36 20 115 C29.57 115 39.14 115 49 115 C51.64 117.64 54.28 120.28 57 123 C59.04721804 124.83293596 61.13033281 126.59776292 63.23828125 128.359375 C65 130 65 130 68 134 C45.56 134 23.12 134 0 134 C0 89.78 0 45.56 0 0 Z " fill="#999999" transform="translate(31,34)"/>
<path d="M0 0 C22.44 0 44.88 0 68 0 C68 44.22 68 88.44 68 134 C53.81 134 39.62 134 25 134 C21.37 130.37 17.74 126.74 14 123 C10.9933122 120.35626028 10.9933122 120.35626028 7.9609375 117.7421875 C4.91045196 115.03199516 2.09113608 112.09926167 -0.7734375 109.1953125 C-3.44633174 106.55993257 -6.25368303 104.12233511 -9.1015625 101.6796875 C-11.58683637 99.48078264 -13.8868022 97.12439776 -16.2109375 94.7578125 C-18.70598323 92.30634835 -21.34430165 90.03907951 -24.0078125 87.7734375 C-24.66523437 87.18820313 -25.32265625 86.60296875 -26 86 C-27.34771484 85.08541016 -27.34771484 85.08541016 -28.72265625 84.15234375 C-32.46244611 78.9756535 -31.52094635 73.38637389 -31.3125 67.1875 C-31.28994141 65.92228516 -31.26738281 64.65707031 -31.24414062 63.35351562 C-31.18529078 60.23447381 -31.1031137 57.11784098 -31 54 C-26.83968095 57.4899997 -22.85537242 61.04365261 -19.0625 64.9375 C-16.1254246 67.91001522 -13.17671812 70.78534997 -10 73.5 C-5.9251665 76.98332542 -2.20707008 80.77818708 1.55859375 84.58984375 C4.27202727 87.26854532 7.10777023 89.74608118 10.00390625 92.22265625 C13.05981278 94.94366892 15.88931939 97.88088166 18.76171875 100.79296875 C21.46278074 103.45631958 24.28511166 105.94018915 27.17578125 108.39453125 C29.19849029 110.17468846 31.09470323 112.09470323 33 114 C38.28 114.33 43.56 114.66 49 115 C49 83.32 49 51.64 49 19 C39.43 19 29.86 19 20 19 C10 11.56944444 10 11.56944444 6.484375 6.8527832 C4.5181008 4.39849786 2.22370757 2.22370757 0 0 Z " fill="#666666" transform="translate(103,34)"/>
<path d="M0 0 C22.44 0 44.88 0 68 0 C68 44.22 68 88.44 68 134 C53.81 134 39.62 134 25 134 C25 133.67 25 133.34 25 133 C38.53 133 52.06 133 66 133 C66 89.44 66 45.88 66 1 C45.54 1 25.08 1 4 1 C4 1.66 4 2.32 4 3 C6.475 3.99 6.475 3.99 9 5 C9 5.66 9 6.32 9 7 C9.66 7.33 10.32 7.66 11 8 C7.24026115 8 6.54322371 7.03457593 3.8125 4.5625 C3.09707031 3.92441406 2.38164063 3.28632812 1.64453125 2.62890625 C1.10183594 2.09136719 0.55914062 1.55382813 0 1 C0 0.67 0 0.34 0 0 Z " fill="#777777" transform="translate(103,34)"/>
<path d="M0 0 C0.33 0 0.66 0 1 0 C1 31.68 1 63.36 1 96 C0.01 96 -0.98 96 -2 96 C-1.89267566 83.63075183 -1.78007892 71.26156416 -1.66066074 58.89242649 C-1.60538387 53.1495771 -1.5519564 47.40672267 -1.50268555 41.66381836 C-1.4551121 36.1265548 -1.40277211 30.58935533 -1.34705925 25.05216789 C-1.32660378 22.93457564 -1.30789611 20.81696578 -1.29092598 18.69934273 C-1.26695237 15.74423961 -1.23688857 12.78925886 -1.20532227 9.83422852 C-1.1995668 8.94950363 -1.19381134 8.06477875 -1.18788147 7.15324402 C-1.11405216 1.11405216 -1.11405216 1.11405216 0 0 Z " fill="#AAAAAA" transform="translate(50,53)"/>
<path d="M0 0 C5.28 0 10.56 0 16 0 C16.33 0.66 16.66 1.32 17 2 C12.05 2.33 7.1 2.66 2 3 C1.67 33.03 1.34 63.06 1 94 C10.24 94 19.48 94 29 94 C29.66 95.32 30.32 96.64 31 98 C30.34 97.67 29.68 97.34 29 97 C19.43 96.67 9.86 96.34 0 96 C0 64.32 0 32.64 0 0 Z " fill="#EEEEEE" transform="translate(51,53)"/>
<path d="M0 0 C3.98292739 -0.19945322 7.96388178 -0.34368561 11.95068359 -0.43945312 C13.96425576 -0.49894394 15.97643803 -0.6006609 17.98828125 -0.703125 C27.62750452 -0.89687823 27.62750452 -0.89687823 31.56445312 1.67578125 C33.56037493 3.6847483 35.28412342 5.75063388 37 8 C38.4816944 9.35364674 39.9762233 10.69390569 41.5 12 C42.50546875 12.86625 42.50546875 12.86625 43.53125 13.75 C44.0159375 14.1625 44.500625 14.575 45 15 C44.01 15.33 43.02 15.66 42 16 C40.9790625 14.948125 40.9790625 14.948125 39.9375 13.875 C37.25551124 11.17764168 34.38732727 8.74955877 31.453125 6.33203125 C30 5 30 5 29 3 C15.14 2.505 15.14 2.505 1 2 C0.67 1.34 0.34 0.68 0 0 Z " fill="#AAAAAA" transform="translate(51,149)"/>
<path d="M0 0 C22.11 0 44.22 0 67 0 C67 0.33 67 0.66 67 1 C46.21 1 25.42 1 4 1 C4 1.66 4 2.32 4 3 C6.475 3.99 6.475 3.99 9 5 C9 5.66 9 6.32 9 7 C9.66 7.33 10.32 7.66 11 8 C7.24026115 8 6.54322371 7.03457593 3.8125 4.5625 C3.09707031 3.92441406 2.38164063 3.28632812 1.64453125 2.62890625 C1.10183594 2.09136719 0.55914062 1.55382813 0 1 C0 0.67 0 0.34 0 0 Z " fill="#777777" transform="translate(103,34)"/>
<path d="M0 0 C5.57409568 1.39352392 5.57409568 1.39352392 7.78222656 4.5378418 C9.81497344 7.28010848 9.81497344 7.28010848 13.11621094 7.65942383 C14.31020508 7.67513428 15.50419922 7.69084473 16.734375 7.70703125 C18.02988281 7.73603516 19.32539063 7.76503906 20.66015625 7.79492188 C22.02343512 7.80131071 23.3867166 7.8071633 24.75 7.8125 C26.12894569 7.83564971 27.50785607 7.86101607 28.88671875 7.88867188 C32.2581019 7.94761214 35.62818438 7.98384418 39 8 C39 8.66 39 9.32 39 10 C35.05387407 10.22513006 31.11030407 10.38696536 27.15917969 10.49438477 C25.16728196 10.56108417 23.17716621 10.67554393 21.1875 10.79101562 C13.87861407 10.95712667 9.63485102 10.4943782 4.0546875 5.52734375 C0 1.33441889 0 1.33441889 0 0 Z " fill="#888888" transform="translate(113,43)"/>
<path d="M0 0 C1.98 1.65 3.96 3.3 6 5 C5.01 5.33 4.02 5.66 3 6 C2.34 5.67 1.68 5.34 1 5 C0.26596879 17.41667068 0.26596879 17.41667068 3.7421875 28.91796875 C6.71249148 31.46938371 9.2973036 32.76576787 13 34 C13.33 35.65 13.66 37.3 14 39 C8.41159455 35.79644363 3.63093504 32.40795737 0 27 C-1.05341355 22.2479028 -0.86337208 17.77459731 -0.5625 12.9375 C-0.52189453 11.69033203 -0.48128906 10.44316406 -0.43945312 9.15820312 C-0.33404468 6.10135836 -0.18667035 3.05277816 0 0 Z " fill="#777777" transform="translate(72,88)"/>
<path d="M0 0 C0.67095703 0.58007812 0.67095703 0.58007812 1.35546875 1.171875 C1.96003906 1.69265625 2.56460938 2.2134375 3.1875 2.75 C4.07501953 3.51570313 4.07501953 3.51570313 4.98046875 4.296875 C7.03058655 6.09111105 7.03058655 6.09111105 9.59570312 7.7265625 C12 10 12 10 12.56762695 12.84082031 C12.54144287 13.90913086 12.51525879 14.97744141 12.48828125 16.078125 C12.47216797 17.23828125 12.45605469 18.3984375 12.43945312 19.59375 C12.39755859 20.8003125 12.35566406 22.006875 12.3125 23.25 C12.27866211 25.08304688 12.27866211 25.08304688 12.24414062 26.953125 C12.18521758 29.96998502 12.10299265 32.98437515 12 36 C8.83884224 34.63016497 8.0072908 34.0109362 6 31 C7.32 31.66 8.64 32.32 10 33 C10 25.74 10 18.48 10 11 C9.34 11 8.68 11 8 11 C6.72469089 9.52848949 5.4542426 8.05137753 4.2421875 6.52734375 C2.97110001 4.9021389 2.97110001 4.9021389 1.1875 3.25 C0 2 0 2 0 0 Z " fill="#AAAAAA" transform="translate(118,76)"/>
<path d="M0 0 C3.42856619 1.50982731 5.95678216 3.51713969 8.75 6 C9.54921875 6.70125 10.3484375 7.4025 11.171875 8.125 C13 10 13 10 13 12 C13.598125 12.268125 14.19625 12.53625 14.8125 12.8125 C16.97224808 13.98493467 18.35790256 15.19369282 20 17 C19.67 17.66 19.34 18.32 19 19 C16.39092446 16.58858849 13.78863495 14.1699725 11.1875 11.75 C10.44951172 11.06808594 9.71152344 10.38617188 8.95117188 9.68359375 C8.23896484 9.01972656 7.52675781 8.35585937 6.79296875 7.671875 C6.1383667 7.0644043 5.48376465 6.45693359 4.80932617 5.83105469 C2.99944449 3.99943782 1.49370007 2.09400985 0 0 Z " fill="#777777" transform="translate(103,143)"/>
<path d="M0 0 C3.83901868 0.54843124 5.36163505 2.2765265 8 5 C8.99 5.33 9.98 5.66 11 6 C11.33 7.65 11.66 9.3 12 11 C7.19126013 8.52277037 3.56825335 5.01042883 0 1 C0 0.67 0 0.34 0 0 Z " fill="#888888" transform="translate(74,116)"/>
<path d="M0 0 C2.64 0 5.28 0 8 0 C6.68 0.33 5.36 0.66 4 1 C4 1.66 4 2.32 4 3 C6.475 3.99 6.475 3.99 9 5 C9 5.66 9 6.32 9 7 C9.66 7.33 10.32 7.66 11 8 C7.24026115 8 6.54322371 7.03457593 3.8125 4.5625 C3.09707031 3.92441406 2.38164063 3.28632812 1.64453125 2.62890625 C1.10183594 2.09136719 0.55914062 1.55382813 0 1 C0 0.67 0 0.34 0 0 Z " fill="#888888" transform="translate(103,34)"/>
<path d="M0 0 C1.27609323 0.90933009 2.54565553 1.82782853 3.8125 2.75 C4.87404297 3.51570312 4.87404297 3.51570312 5.95703125 4.296875 C8.02977691 6.02482358 9.47375854 7.78526476 11 10 C9.125 9.75 9.125 9.75 7 9 C6.690625 8.360625 6.38125 7.72125 6.0625 7.0625 C5.12720697 4.73547609 5.12720697 4.73547609 2.375 3.75 C1.59125 3.5025 0.8075 3.255 0 3 C0 2.01 0 1.02 0 0 Z " fill="#777777" transform="translate(120,134)"/>
<path d="M0 0 C4.99603476 1.24900869 7.06204746 2.80292494 10 7 C10.66 7.66 11.32 8.32 12 9 C8.36679834 8.41083216 6.45533138 6.94481799 3.75 4.5 C3.04359375 3.8709375 2.3371875 3.241875 1.609375 2.59375 C1.07828125 2.0678125 0.5471875 1.541875 0 1 C0 0.67 0 0.34 0 0 Z " fill="#777777" transform="translate(113,43)"/>
<path d="M0 0 C3.53600465 1.91135386 5.78972846 3.62642766 8 7 C6.35 6.67 4.7 6.34 3 6 C3 5.34 3 4.68 3 4 C2.34 4 1.68 4 1 4 C0.67 2.68 0.34 1.36 0 0 Z " fill="#888888" transform="translate(106,121)"/>
<path d="M0 0 C3.91841827 1.30613942 6.32640809 2.83129848 9 6 C9 6.66 9 7.32 9 8 C4.7257442 6.4169423 2.73468206 3.49431596 0 0 Z " fill="#AAAAAA" transform="translate(107,91)"/>
<path d="M0 0 C5.75 1.75 5.75 1.75 8 4 C7.67 4.99 7.34 5.98 7 7 C5.83040013 6.02433888 4.66438823 5.044375 3.5 4.0625 C2.8503125 3.51722656 2.200625 2.97195312 1.53125 2.41015625 C1.0259375 1.94480469 0.520625 1.47945313 0 1 C0 0.67 0 0.34 0 0 Z " fill="#EEEEEE" transform="translate(122,79)"/>
<path d="M0 0 C4.24822374 0.47202486 6.19989709 2.96655518 9 6 C8.67 6.66 8.34 7.32 8 8 C6.66372225 6.85760183 5.33104612 5.71098945 4 4.5625 C3.2575 3.92441406 2.515 3.28632813 1.75 2.62890625 C1.1725 2.09136719 0.595 1.55382812 0 1 C0 0.67 0 0.34 0 0 Z " fill="#EEEEEE" transform="translate(123,136)"/>
<path d="M0 0 C2.31 1.98 4.62 3.96 7 6 C6.01 6.495 6.01 6.495 5 7 C2 6 2 6 0 3 C0 2.01 0 1.02 0 0 Z " fill="#666666" transform="translate(80,96)"/>
</svg>
